<svg width="85" height="35" viewBox="0 0 85 35" fill="none" xmlns="http://www.w3.org/2000/svg">
<rect x="1.16667" y="0.5" width="83" height="34" rx="3.32407" fill="white"/>
<rect x="1.16667" y="0.5" width="83" height="34" rx="3.32407" stroke="#D7D7D7"/>
<g clip-path="url(#clip0_45_924)">
<path d="M28.97 10.8206C28.4543 11.4286 27.6293 11.9082 26.8043 11.8397C26.7012 11.0176 27.1051 10.1441 27.5778 9.60466C28.0934 8.97954 28.9957 8.53425 29.7262 8.5C29.8122 9.35633 29.477 10.1955 28.97 10.8206ZM29.7176 12.0024C28.5231 11.9339 27.5004 12.6789 26.9332 12.6789C26.3575 12.6789 25.4895 12.0366 24.5442 12.0538C23.3153 12.0709 22.1723 12.7645 21.545 13.8692C20.2559 16.0785 21.2098 19.3497 22.4559 21.148C23.0661 22.0385 23.7965 23.0147 24.759 22.9805C25.67 22.9462 26.0309 22.3896 27.1309 22.3896C28.2395 22.3896 28.5575 22.9805 29.52 22.9634C30.5168 22.9462 31.1442 22.0728 31.7543 21.1822C32.4504 20.1717 32.734 19.187 32.7512 19.1356C32.734 19.1185 30.8262 18.3906 30.809 16.1984C30.7918 14.3658 32.3129 13.4924 32.3817 13.441C31.5223 12.1736 30.1817 12.0366 29.7176 12.0024ZM36.6184 9.51903V22.8692H38.6981V18.3049H41.577C44.2067 18.3049 46.0543 16.5067 46.0543 13.9034C46.0543 11.3002 44.2411 9.51903 41.6457 9.51903H36.6184ZM38.6981 11.2659H41.0957C42.9004 11.2659 43.9317 12.225 43.9317 13.912C43.9317 15.599 42.9004 16.5666 41.0872 16.5666H38.6981V11.2659ZM49.8528 22.9719C51.159 22.9719 52.3707 22.3126 52.9207 21.2678H52.9637V22.8692H54.8887V16.2241C54.8887 14.2973 53.3418 13.0557 50.9614 13.0557C48.7528 13.0557 47.12 14.3145 47.0598 16.0442H48.9332C49.0879 15.2222 49.8528 14.6827 50.9012 14.6827C52.1731 14.6827 52.8864 15.2735 52.8864 16.3611V17.0975L50.2911 17.2517C47.8762 17.3972 46.57 18.382 46.57 20.0947C46.57 21.8245 47.9192 22.9719 49.8528 22.9719ZM50.4114 21.3877C49.3028 21.3877 48.5981 20.8568 48.5981 20.0433C48.5981 19.2041 49.277 18.716 50.5747 18.6389L52.8864 18.4933V19.2469C52.8864 20.4971 51.8207 21.3877 50.4114 21.3877ZM57.4582 26.5C59.4864 26.5 60.4403 25.7293 61.2739 23.3915L64.9262 13.1841H62.8122L60.3629 21.0709H60.32L57.8707 13.1841H55.6965L59.22 22.9034L59.0309 23.4943C58.7129 24.4962 58.1973 24.8815 57.2778 24.8815C57.1145 24.8815 56.7965 24.8644 56.6676 24.8473V26.4486C56.7879 26.4829 57.3036 26.5 57.4582 26.5Z" fill="#D7D7D7"/>
</g>
<defs>
<clipPath id="clip0_45_924">
<rect width="44" height="18" fill="white" transform="translate(20.6667 8.5)"/>
</clipPath>
</defs>
</svg>
