<svg width="10" height="9" viewBox="0 0 10 9" fill="none" xmlns="http://www.w3.org/2000/svg">
<path d="M9.4501 -7.00152e-05C9.27714 0.00511282 9.11729 0.0984039 9.02557 0.243523L4.09632 7.70163L0.901881 4.97286C0.765612 4.83293 0.558589 4.77851 0.36991 4.83811C0.181231 4.89512 0.0423417 5.0532 0.00827462 5.24496C-0.0231719 5.43932 0.0554444 5.63368 0.215298 5.75029L3.86834 8.87554C3.98364 8.97142 4.13563 9.01548 4.28238 8.99216C4.43175 8.96883 4.56278 8.88591 4.64664 8.76152L9.90869 0.811044C10.0214 0.647785 10.0292 0.43788 9.93228 0.264255C9.83532 0.0932211 9.64664 -0.00784427 9.4501 -7.00152e-05Z" fill="#7540EF"/>
</svg>
