<svg width="29" height="28" viewBox="0 0 29 28" fill="none" xmlns="http://www.w3.org/2000/svg">
<path d="M11.3512 7.08781C11.6717 7.08781 11.9316 6.82767 11.9316 6.50678V0.581033C11.9316 0.260145 11.6717 0 11.3512 0C11.0306 0 10.7707 0.260145 10.7707 0.581033V6.50678C10.7707 6.82767 11.0306 7.08781 11.3512 7.08781Z" fill="white"/>
<path d="M7.58099 10.8672C7.58099 10.5463 7.32109 10.2861 7.00051 10.2861H1.08047C0.759894 10.2861 0.5 10.5463 0.5 10.8672C0.5 11.1881 0.759894 11.4482 1.08047 11.4482H7.00051C7.32109 11.4482 7.58099 11.1881 7.58099 10.8672Z" fill="white"/>
<path d="M14.3683 8.36794C14.5169 8.36794 14.6654 8.31115 14.7789 8.19785L18.9649 4.00781C19.1915 3.78094 19.1915 3.41304 18.9649 3.18618C18.7382 2.95931 18.3707 2.95931 18.144 3.18618L13.958 7.37622C13.7314 7.60309 13.7314 7.97099 13.958 8.19785C14.0715 8.31142 14.22 8.36794 14.3686 8.36794H14.3683Z" fill="white"/>
<path d="M4.50368 3.18591C4.27704 2.95904 3.90949 2.95904 3.68284 3.18591C3.45619 3.41278 3.45619 3.78068 3.68284 4.00755L7.86885 8.19759C7.9823 8.31115 8.13085 8.36767 8.2794 8.36767C8.42795 8.36767 8.5765 8.31089 8.68995 8.19759C8.9166 7.97072 8.9166 7.60282 8.68995 7.37595L4.50368 3.18591Z" fill="white"/>
<path d="M7.86885 13.4475L3.68284 17.6375C3.45619 17.8644 3.45619 18.2323 3.68284 18.4592C3.7963 18.5727 3.94485 18.6292 4.0934 18.6292C4.24194 18.6292 4.39049 18.5725 4.50395 18.4592L8.68995 14.2691C8.9166 14.0423 8.9166 13.6744 8.68995 13.4475C8.46331 13.2206 8.09576 13.2206 7.86911 13.4475H7.86885Z" fill="white"/>
<path d="M28.3298 23.2339L22.962 17.861L26.8414 15.4687C27.0385 15.3472 27.1445 15.1201 27.1113 14.8908C27.0783 14.6616 26.9123 14.4738 26.6889 14.4133L11.5206 10.2914C11.3198 10.237 11.1053 10.2941 10.958 10.4414C10.8108 10.5888 10.7538 10.8035 10.8084 11.0045L14.9261 26.1874C14.9868 26.4109 15.1741 26.5773 15.4031 26.6103C15.6324 26.6433 15.8591 26.5371 15.9804 26.3401L18.3704 22.4569L23.7382 27.8299C23.8517 27.9435 24.0002 28 24.1488 28C24.2973 28 24.4459 27.9432 24.5593 27.8299L28.33 24.0556C28.5567 23.8287 28.5567 23.4608 28.33 23.2339H28.3298ZM24.1485 26.5973L18.6717 21.1153C18.5622 21.0057 18.4142 20.9452 18.2612 20.9452C18.2387 20.9452 18.2161 20.9465 18.1936 20.9492C18.0174 20.9698 17.8601 21.0701 17.767 21.2215L15.695 24.588L12.1939 11.6788L25.0907 15.1832L21.7274 17.2572C21.5762 17.3504 21.4759 17.5079 21.4554 17.6843C21.4348 17.8607 21.496 18.0371 21.6213 18.1628L27.0981 23.6449L24.1482 26.5976L24.1485 26.5973Z" fill="white"/>
<path d="M24.1485 26.5973L18.6717 21.1153C18.5622 21.0057 18.4142 20.9452 18.2612 20.9452C18.2387 20.9452 18.2161 20.9465 18.1936 20.9492C18.0174 20.9698 17.8601 21.0701 17.767 21.2215L15.695 24.588L12.1939 11.6788L25.0907 15.1832L21.7274 17.2572C21.5762 17.3504 21.4759 17.5079 21.4554 17.6843C21.4348 17.8607 21.496 18.0371 21.6213 18.1628L27.0981 23.6449L24.1485 26.5973Z" fill="white"/>
</svg>
