<svg width="100" height="100" viewBox="0 0 100 100" fill="none" xmlns="http://www.w3.org/2000/svg">
<rect width="100" height="100" rx="50" fill="#BA85FF"/>
<rect width="100" height="100" rx="50" fill="url(#paint0_radial_32_189)"/>
<path d="M36 40H38C39.0609 40 40.0783 39.5786 40.8284 38.8284C41.5786 38.0783 42 37.0609 42 36C42 35.4696 42.2107 34.9609 42.5858 34.5858C42.9609 34.2107 43.4696 34 44 34H56C56.5304 34 57.0391 34.2107 57.4142 34.5858C57.7893 34.9609 58 35.4696 58 36C58 37.0609 58.4214 38.0783 59.1716 38.8284C59.9217 39.5786 60.9391 40 62 40H64C65.0609 40 66.0783 40.4214 66.8284 41.1716C67.5786 41.9217 68 42.9391 68 44V62C68 63.0609 67.5786 64.0783 66.8284 64.8284C66.0783 65.5786 65.0609 66 64 66H36C34.9391 66 33.9217 65.5786 33.1716 64.8284C32.4214 64.0783 32 63.0609 32 62V44C32 42.9391 32.4214 41.9217 33.1716 41.1716C33.9217 40.4214 34.9391 40 36 40Z" stroke="white" stroke-width="4" stroke-linecap="round" stroke-linejoin="round"/>
<path d="M44 52C44 53.5913 44.6321 55.1174 45.7574 56.2426C46.8826 57.3679 48.4087 58 50 58C51.5913 58 53.1174 57.3679 54.2426 56.2426C55.3679 55.1174 56 53.5913 56 52C56 50.4087 55.3679 48.8826 54.2426 47.7574C53.1174 46.6321 51.5913 46 50 46C48.4087 46 46.8826 46.6321 45.7574 47.7574C44.6321 48.8826 44 50.4087 44 52Z" stroke="white" stroke-width="4" stroke-linecap="round" stroke-linejoin="round"/>
<defs>
<radialGradient id="paint0_radial_32_189" cx="0" cy="0" r="1" gradientUnits="userSpaceOnUse" gradientTransform="translate(8.5 -6.49999) rotate(82.2448) scale(129.686)">
<stop stop-color="white" stop-opacity="0.67"/>
<stop offset="1" stop-color="#0BF0FF" stop-opacity="0"/>
</radialGradient>
</defs>
</svg>
