<svg width="410" height="233" viewBox="0 0 410 233" fill="none" xmlns="http://www.w3.org/2000/svg">
<path d="M0 20C0 8.9543 8.95431 0 20 0H270C281.046 0 290 8.9543 290 20V47C290 58.0457 281.046 67 270 67H0V20Z" fill="#BA84FF"/>
<path d="M0 20C0 8.9543 8.95431 0 20 0H270C281.046 0 290 8.9543 290 20V47C290 58.0457 281.046 67 270 67H0V20Z" fill="url(#paint0_radial_29_25)"/>
<path d="M0 20C0 8.9543 8.95431 0 20 0H270C281.046 0 290 8.9543 290 20V47C290 58.0457 281.046 67 270 67H0V20Z" fill="url(#paint1_radial_29_25)" fill-opacity="0.6"/>
<rect x="20" y="12" width="229.57" height="7" rx="3.5" fill="white"/>
<rect x="20" y="24" width="106.258" height="7" rx="3.5" fill="white"/>
<rect x="20" y="36" width="244" height="7" rx="3.5" fill="white"/>
<rect x="20" y="48" width="177.097" height="7" rx="3.5" fill="white"/>
<path d="M0 186C0 174.954 8.9543 166 20 166H217C228.046 166 237 174.954 237 186V213C237 224.046 228.046 233 217 233H0V186Z" fill="#BA84FF"/>
<path d="M0 186C0 174.954 8.9543 166 20 166H217C228.046 166 237 174.954 237 186V213C237 224.046 228.046 233 217 233H0V186Z" fill="url(#paint2_radial_29_25)"/>
<path d="M0 186C0 174.954 8.9543 166 20 166H217C228.046 166 237 174.954 237 186V213C237 224.046 228.046 233 217 233H0V186Z" fill="url(#paint3_radial_29_25)" fill-opacity="0.6"/>
<rect x="16.3447" y="178" width="187.614" height="7" rx="3.5" fill="white"/>
<rect x="16" y="190" width="114" height="7" rx="3.5" fill="white"/>
<rect x="16" y="202" width="61" height="7" rx="3.5" fill="white"/>
<rect x="16" y="214" width="181" height="7" rx="3.5" fill="white"/>
<path d="M185 103C185 91.9543 193.954 83 205 83H390C401.046 83 410 91.9543 410 103V150H205C193.954 150 185 141.046 185 130V103Z" fill="#BA84FF"/>
<path d="M185 103C185 91.9543 193.954 83 205 83H390C401.046 83 410 91.9543 410 103V150H205C193.954 150 185 141.046 185 130V103Z" fill="url(#paint4_radial_29_25)"/>
<path d="M185 103C185 91.9543 193.954 83 205 83H390C401.046 83 410 91.9543 410 103V150H205C193.954 150 185 141.046 185 130V103Z" fill="url(#paint5_radial_29_25)"/>
<path d="M185 103C185 91.9543 193.954 83 205 83H390C401.046 83 410 91.9543 410 103V150H205C193.954 150 185 141.046 185 130V103Z" fill="url(#paint6_radial_29_25)" fill-opacity="0.6"/>
<rect x="205" y="95" width="125" height="7" rx="3.5" fill="white"/>
<rect x="205" y="107" width="166" height="7" rx="3.5" fill="white"/>
<rect x="205" y="119" width="186" height="7" rx="3.5" fill="white"/>
<rect x="205" y="131" width="135" height="7" rx="3.5" fill="white"/>
<defs>
<radialGradient id="paint0_radial_29_25" cx="0" cy="0" r="1" gradientUnits="userSpaceOnUse" gradientTransform="translate(306.317 90.647) rotate(-161.356) scale(189.037 359.255)">
<stop stop-color="#5A46F5"/>
<stop offset="1" stop-color="#5A46F5" stop-opacity="0"/>
</radialGradient>
<radialGradient id="paint1_radial_29_25" cx="0" cy="0" r="1" gradientUnits="userSpaceOnUse" gradientTransform="translate(226.69 -33.5) rotate(104.308) scale(99.168 177.878)">
<stop stop-color="white"/>
<stop offset="1" stop-color="white" stop-opacity="0"/>
</radialGradient>
<radialGradient id="paint2_radial_29_25" cx="0" cy="0" r="1" gradientUnits="userSpaceOnUse" gradientTransform="translate(250.335 256.647) rotate(-157.568) scale(158.366 350.46)">
<stop stop-color="#5A46F5"/>
<stop offset="1" stop-color="#5A46F5" stop-opacity="0"/>
</radialGradient>
<radialGradient id="paint3_radial_29_25" cx="0" cy="0" r="1" gradientUnits="userSpaceOnUse" gradientTransform="translate(185.261 132.5) rotate(101.773) scale(98.1571 146.866)">
<stop stop-color="white"/>
<stop offset="1" stop-color="white" stop-opacity="0"/>
</radialGradient>
<radialGradient id="paint4_radial_29_25" cx="0" cy="0" r="1" gradientUnits="userSpaceOnUse" gradientTransform="translate(422.66 173.647) rotate(-156.498) scale(151.541 347.699)">
<stop stop-color="#46CBF5"/>
<stop offset="1" stop-color="#5A46F5" stop-opacity="0"/>
</radialGradient>
<radialGradient id="paint5_radial_29_25" cx="0" cy="0" r="1" gradientUnits="userSpaceOnUse" gradientTransform="translate(208.306 83) rotate(47.4629) scale(150.657 222.612)">
<stop stop-color="#17CAF5"/>
<stop offset="1" stop-color="#17CAF5" stop-opacity="0"/>
</radialGradient>
<radialGradient id="paint6_radial_29_25" cx="0" cy="0" r="1" gradientUnits="userSpaceOnUse" gradientTransform="translate(360.88 49.5) rotate(101.193) scale(97.9552 139.717)">
<stop stop-color="white"/>
<stop offset="1" stop-color="white" stop-opacity="0"/>
</radialGradient>
</defs>
</svg>
