<svg width="1853" height="511" viewBox="0 0 1853 511" fill="none" xmlns="http://www.w3.org/2000/svg">
<path d="M1682.82 46.4312L1685.33 1040.31L926.879 1040.36H926.117L170.667 1040.31V46.4312C170.667 24.4705 188.863 6.27441 210.823 6.27441H1642.67C1665.25 6.27441 1682.82 25.0979 1682.82 46.4312Z" fill="black"/>
<path fill-rule="evenodd" clip-rule="evenodd" d="M1642.67 6.27445H210.823C188.951 6.27445 170.666 24.4705 170.666 46.4313V1031.76C170.666 1036.49 174.493 1040.31 179.214 1040.31H1674.27C1678.99 1040.31 1682.82 1036.49 1682.82 1031.76V46.4313C1682.82 24.4705 1664.54 6.27445 1642.67 6.27445ZM1642.67 3.76465H210.823C187.268 3.76465 168.156 22.5882 168.156 46.4313V1040.31H1685.33V46.4313C1685.33 22.5882 1666.22 3.76465 1642.67 3.76465Z" fill="#252525"/>
<path fill-rule="evenodd" clip-rule="evenodd" d="M1689.1 1040.31H164.392V46.4313C164.392 21.1938 185.586 0 210.823 0H1642.66C1667.9 0 1689.1 21.1938 1689.1 46.4313V1040.31ZM1642.66 3.7647H210.823C187.268 3.7647 168.163 22.8763 168.163 46.4313L168.162 1040.31H1685.33L1685.33 46.4313C1685.33 22.8763 1666.22 3.7647 1642.66 3.7647Z" fill="#B2B1B6"/>
<mask id="mask0_37_286" style="mask-type:alpha" maskUnits="userSpaceOnUse" x="189" y="27" width="1474" height="955">
<path d="M189.49 48.8693C189.49 37.1269 199.039 27.6079 210.819 27.6079H1641.41C1653.19 27.6079 1662.74 37.127 1662.74 48.8693V981.332H189.49V48.8693Z" fill="white"/>
</mask>
<g mask="url(#mask0_37_286)">
<rect x="189.49" y="-238.007" width="1473.25" height="1473.25" fill="#1F1F1F"/>
<rect x="189.692" y="27.8955" width="1472.9" height="953.242" fill="#090A18"/>
</g>
<g clip-path="url(#clip0_37_286)">
<path d="M709.449 279.1C696.185 279.1 685.09 274.754 676.164 266.052C667.357 257.35 662.959 246.592 662.959 233.767C662.959 220.942 667.357 210.184 676.164 201.482C685.09 192.78 696.185 188.434 709.449 188.434C718.026 188.434 725.828 190.442 732.883 194.449C739.928 198.455 745.271 203.83 748.903 210.582L729.35 221.747C727.599 218.197 724.922 215.393 721.34 213.337C717.758 211.27 713.737 210.242 709.28 210.242C702.464 210.242 696.832 212.444 692.364 216.858C687.905 221.262 685.677 226.899 685.677 233.767C685.677 240.635 687.905 246.019 692.364 250.598C696.832 254.944 702.464 257.117 709.28 257.117C713.857 257.117 717.937 256.118 721.519 254.12C725.102 252.111 727.769 249.337 729.53 245.786L749.262 256.778C745.381 263.646 739.898 269.078 732.783 273.085C725.688 277.101 717.907 279.1 709.449 279.1ZM1036.43 233.767C1036.43 258.805 1057.25 279.1 1082.93 279.1C1108.61 279.1 1129.43 258.805 1129.43 233.767C1129.43 208.729 1108.61 188.434 1082.93 188.434C1057.25 188.434 1036.43 208.729 1036.43 233.767ZM1082.93 256.952C1069.79 256.952 1059.16 246.572 1059.16 233.767C1059.16 220.961 1069.79 210.582 1082.93 210.582C1096.06 210.582 1106.7 220.961 1106.7 233.767C1106.7 246.572 1096.06 256.952 1082.93 256.952ZM1082.93 330.408C1057.25 330.408 1036.43 310.114 1036.43 285.085H1059.16C1059.16 297.881 1069.79 308.261 1082.93 308.261C1096.06 308.261 1106.7 297.881 1106.7 285.085H1129.43C1129.43 310.114 1108.61 330.408 1082.93 330.408ZM810.2 188.434C819.951 188.434 827.872 191.587 833.982 197.883C840.32 204.295 843.494 212.987 843.494 223.979V276.694H820.767V226.724C820.767 221.116 819.215 216.771 816.101 213.676C812.986 210.582 808.737 209.039 803.334 209.039C797.343 209.039 792.617 210.843 789.154 214.452C785.691 218.061 783.96 223.348 783.96 230.333V276.694H761.232V156.499H783.96V200.454C789.363 192.441 798.109 188.434 810.2 188.434ZM929.797 200.968V190.84H952.514V276.694H929.797V266.566C922.981 274.918 913.418 279.1 901.089 279.1C888.76 279.1 879.248 274.754 870.789 266.052C862.451 257.234 858.282 246.475 858.282 233.767C858.282 221.058 862.451 210.475 870.789 201.657C879.248 192.838 889.337 188.434 901.089 188.434C913.418 188.434 922.981 192.615 929.797 200.968ZM887.875 251.277C892.452 255.749 898.263 257.98 905.308 257.98C912.354 257.98 918.175 255.749 922.752 251.277C927.448 246.708 929.797 240.868 929.797 233.767C929.797 226.666 927.448 220.884 922.752 216.421C918.175 211.843 912.354 209.553 905.308 209.553C898.263 209.553 892.452 211.843 887.875 216.421C883.297 220.884 881.009 226.666 881.009 233.767C881.009 240.868 883.297 246.708 887.875 251.277ZM1023.49 190.84V212.134H1003.59V247.843C1003.59 250.821 1004.36 253.004 1005.88 254.372C1007.41 255.749 1009.64 256.516 1012.58 256.691C1015.51 256.865 1019.15 256.836 1023.49 256.603V276.694C1008.12 278.411 997.163 277.014 990.645 272.484C984.128 267.963 980.874 259.756 980.874 247.843V212.134H965.55V190.84H980.874V173.495L1003.59 166.801V190.84H1023.49ZM1205.26 237.201V190.84H1227.99V276.694H1205.26V267.08C1199.86 275.093 1191.11 279.1 1179.02 279.1C1169.39 279.1 1161.41 275.957 1155.07 269.661C1148.84 263.248 1145.73 254.547 1145.73 243.555V190.84H1168.46V240.81C1168.46 246.417 1170.01 250.763 1173.12 253.858C1176.23 256.952 1180.48 258.494 1185.89 258.494C1191.88 258.494 1196.61 256.691 1200.07 253.081C1203.53 249.482 1205.26 244.186 1205.26 237.201ZM1271.49 190.84V205.605C1273.48 200.231 1276.89 196.137 1281.7 193.333C1286.52 190.52 1292.04 189.123 1298.26 189.123V213.851C1291.34 212.929 1285.12 214.307 1279.59 217.973C1274.19 221.524 1271.49 227.413 1271.49 235.658V276.694H1248.77V190.84H1271.49ZM1369.6 237.201V190.84H1392.32V276.694H1369.6V267.08C1364.19 275.093 1355.45 279.1 1343.35 279.1C1333.73 279.1 1325.73 275.957 1319.4 269.661C1313.18 263.248 1310.06 254.547 1310.06 243.555V190.84H1332.78V240.81C1332.78 246.417 1334.34 250.763 1337.46 253.858C1340.56 256.952 1344.82 258.494 1350.22 258.494C1356.2 258.494 1360.93 256.691 1364.4 253.081C1367.87 249.482 1369.6 244.186 1369.6 237.201Z" fill="white"/>
<path fill-rule="evenodd" clip-rule="evenodd" d="M540.417 321.075C592.001 321.075 633.834 282.33 633.834 234.533C633.834 186.736 592.001 148 540.417 148C488.833 148 447 186.746 447 234.533C447 290.702 491.848 329.118 540.417 350.382V321.075ZM494.236 248.531C502.595 248.531 509.381 241.915 509.381 233.766C509.381 225.618 502.595 219.011 494.236 219.011C485.877 219.011 479.091 225.618 479.091 233.766C479.091 241.915 485.877 248.531 494.236 248.531ZM540.417 248.531C548.776 248.531 555.562 241.915 555.562 233.766C555.562 225.618 548.776 219.011 540.417 219.011C532.058 219.011 525.272 225.618 525.272 233.766C525.272 241.915 532.049 248.531 540.417 248.531ZM586.598 248.531C594.956 248.531 601.733 241.915 601.733 233.766C601.733 225.618 594.956 219.011 586.598 219.011C578.24 219.011 571.453 225.618 571.453 233.766C571.453 241.915 578.229 248.531 586.598 248.531Z" fill="#7540EF"/>
</g>
<path d="M839.241 27.6079H846.635C850.176 27.6079 853.046 30.4783 853.046 34.019V39.8837C853.046 46.9652 858.787 52.7059 865.868 52.7059H990.439C996.341 52.7059 1001.12 47.922 1001.12 42.0208V34.019C1001.12 30.4783 1003.99 27.6079 1007.54 27.6079H1014.93H839.241Z" fill="black"/>
<g filter="url(#filter0_f_37_286)">
<circle cx="926.812" cy="33.8824" r="6.2745" fill="#131315"/>
</g>
<g filter="url(#filter1_f_37_286)">
<circle cx="926.812" cy="33.8823" r="1.2549" fill="#1D4683"/>
</g>
<defs>
<filter id="filter0_f_37_286" x="918.401" y="25.4709" width="16.8231" height="16.8229" filterUnits="userSpaceOnUse" color-interpolation-filters="sRGB">
<feFlood flood-opacity="0" result="BackgroundImageFix"/>
<feBlend mode="normal" in="SourceGraphic" in2="BackgroundImageFix" result="shape"/>
<feGaussianBlur stdDeviation="1.06852" result="effect1_foregroundBlur_37_286"/>
</filter>
<filter id="filter1_f_37_286" x="924.489" y="31.5589" width="4.6468" height="4.6468" filterUnits="userSpaceOnUse" color-interpolation-filters="sRGB">
<feFlood flood-opacity="0" result="BackgroundImageFix"/>
<feBlend mode="normal" in="SourceGraphic" in2="BackgroundImageFix" result="shape"/>
<feGaussianBlur stdDeviation="0.534258" result="effect1_foregroundBlur_37_286"/>
</filter>
<clipPath id="clip0_37_286">
<rect width="948" height="202.382" fill="white" transform="translate(447 148)"/>
</clipPath>
</defs>
</svg>
