<svg width="22" height="11" viewBox="0 0 22 11" fill="none" xmlns="http://www.w3.org/2000/svg">
<path d="M20.1451 10.7044C20.2501 10.7988 20.3735 10.8726 20.5085 10.9216C20.6434 10.9706 20.7871 10.9939 20.9315 10.99C21.0758 10.9861 21.2179 10.9552 21.3497 10.899C21.4815 10.8428 21.6004 10.7625 21.6996 10.6625C21.7988 10.5626 21.8763 10.4451 21.9278 10.3166C21.9793 10.1882 22.0036 10.0513 21.9996 9.91388C21.9955 9.77645 21.963 9.64114 21.904 9.51566C21.845 9.39018 21.7606 9.277 21.6556 9.18257L11.7614 0.286093C11.5573 0.102369 11.2871 4.68277e-07 11.0062 4.80555e-07C10.7253 4.92834e-07 10.455 0.102369 10.2509 0.286093L0.355629 9.18257C0.248375 9.27637 0.161766 9.38953 0.100834 9.51547C0.0399041 9.64141 0.00586552 9.77762 0.000692801 9.91619C-0.00447802 10.0548 0.0193238 10.1929 0.0707135 10.3227C0.122103 10.4524 0.200057 10.5711 0.300049 10.6719C0.40004 10.7728 0.520075 10.8537 0.653182 10.9099C0.786288 10.9662 0.929812 10.9967 1.07542 10.9998C1.22102 11.0028 1.36581 10.9782 1.50136 10.9275C1.63692 10.8768 1.76054 10.801 1.86504 10.7044L11.0062 2.48614L20.1451 10.7044Z" fill="#A6A7FF"/>
</svg>
