<svg width="36" height="36" viewBox="0 0 36 36" fill="none" xmlns="http://www.w3.org/2000/svg">
<path d="M27 2.41181C29.7149 3.97935 31.9733 6.22875 33.5517 8.93735C35.1301 11.6459 35.9737 14.7198 35.999 17.8546C36.0243 20.9894 35.2305 24.0765 33.696 26.8103C32.1616 29.544 29.9398 31.8296 27.2506 33.4408C24.5614 35.052 21.4981 35.9329 18.3638 35.9963C15.2295 36.0598 12.133 35.3035 9.3808 33.8024C6.62861 32.3014 4.31617 30.1076 2.6724 27.4381C1.02863 24.7687 0.110537 21.7163 0.00900021 18.583L0 17.9998L0.00900021 17.4166C0.109806 14.308 1.01439 11.2785 2.63455 8.62359C4.25472 5.96865 6.53518 3.77882 9.25361 2.2676C11.972 0.75637 15.0357 -0.0246794 18.1458 0.000594442C21.256 0.0258683 24.3065 0.856602 27 2.41181ZM24.6726 13.1272C24.3627 12.8173 23.9503 12.6311 23.5128 12.6036C23.0754 12.5761 22.6429 12.7092 22.2966 12.9778L22.1274 13.1272L16.2 19.0528L13.8726 16.7272L13.7034 16.5778C13.3571 16.3093 12.9247 16.1765 12.4873 16.204C12.05 16.2316 11.6377 16.4178 11.3279 16.7277C11.018 17.0375 10.8318 17.4498 10.8042 17.8871C10.7766 18.3245 10.9095 18.7569 11.178 19.1032L11.3274 19.2724L14.9274 22.8724L15.0966 23.0218C15.4123 23.2667 15.8005 23.3997 16.2 23.3997C16.5995 23.3997 16.9877 23.2667 17.3034 23.0218L17.4726 22.8724L24.6726 15.6724L24.822 15.5032C25.0907 15.1569 25.2237 14.7244 25.1962 14.287C25.1687 13.8495 24.9825 13.4372 24.6726 13.1272Z" fill="#A6A7FF"/>
</svg>
