<svg width="75" height="75" viewBox="0 0 75 75" fill="none" xmlns="http://www.w3.org/2000/svg">
<rect width="75" height="75" rx="20" fill="#BA84FF"/>
<rect width="75" height="75" rx="20" fill="url(#paint0_radial_35_95)"/>
<rect width="75" height="75" rx="20" fill="url(#paint1_radial_35_95)"/>
<rect width="75" height="75" rx="20" fill="url(#paint2_radial_35_95)" fill-opacity="0.6"/>
<path d="M36 28H52C52.5304 28 53.0391 28.2107 53.4142 28.5858C53.7893 28.9609 54 29.4696 54 30V44C54 44.54 53.786 45.032 53.436 45.392M46 46H24C23.4696 46 22.9609 45.7893 22.5858 45.4142C22.2107 45.0391 22 44.5304 22 44V30C22 29.4696 22.2107 28.9609 22.5858 28.5858C22.9609 28.2107 23.4696 28 24 28H28M28 46V54M29 46L37.488 37.512M41.49 33.51L47 28M41 46L43.498 43.502M47.482 39.518L54 33M22 41L31.504 31.496M48 48V54M24 54H32M44 54H52M48 28V24M20 20L56 56" stroke="white" stroke-width="4" stroke-linecap="round" stroke-linejoin="round"/>
<defs>
<radialGradient id="paint0_radial_35_95" cx="0" cy="0" r="1" gradientUnits="userSpaceOnUse" gradientTransform="translate(-25.5 120.5) rotate(-41.3124) scale(160.683 140.715)">
<stop stop-color="#5A46F5"/>
<stop offset="1" stop-color="#5A46F5" stop-opacity="0"/>
</radialGradient>
<radialGradient id="paint1_radial_35_95" cx="0" cy="0" r="1" gradientUnits="userSpaceOnUse" gradientTransform="translate(82 -10) rotate(-146.651) scale(72.5116 74.9937)">
<stop stop-color="#17CAF5"/>
<stop offset="1" stop-color="#17CAF5" stop-opacity="0"/>
</radialGradient>
<radialGradient id="paint2_radial_35_95" cx="0" cy="0" r="1" gradientUnits="userSpaceOnUse" gradientTransform="translate(59.3407 -16.0714) rotate(101.592) scale(82.0303 79.844)">
<stop stop-color="white"/>
<stop offset="1" stop-color="white" stop-opacity="0"/>
</radialGradient>
</defs>
</svg>
