<svg width="178" height="38" viewBox="0 0 178 38" fill="none" xmlns="http://www.w3.org/2000/svg">
<g clip-path="url(#clip0_2003_16)">
<path d="M49.2785 24.6159C46.7879 24.6159 44.7046 23.7999 43.0287 22.166C41.3751 20.5322 40.5493 18.5121 40.5493 16.104C40.5493 13.6961 41.3751 11.676 43.0287 10.0421C44.7046 8.40824 46.7879 7.59221 49.2785 7.59221C50.8889 7.59221 52.3537 7.96925 53.6784 8.72154C55.0012 9.47381 56.0045 10.4829 56.6865 11.7507L53.0152 13.8472C52.6863 13.1805 52.1838 12.6541 51.5111 12.268C50.8385 11.88 50.0836 11.6869 49.2466 11.6869C47.9668 11.6869 46.9094 12.1004 46.0704 12.9292C45.2333 13.7561 44.8148 14.8144 44.8148 16.104C44.8148 17.3936 45.2333 18.4045 46.0704 19.2644C46.9094 20.0803 47.9668 20.4883 49.2466 20.4883C50.1061 20.4883 50.8721 20.3007 51.5448 19.9256C52.2174 19.5485 52.7182 19.0276 53.0488 18.3608L56.7538 20.4246C56.0252 21.7142 54.9956 22.7343 53.6597 23.4865C52.3276 24.2407 50.8666 24.6159 49.2785 24.6159ZM110.673 16.104C110.673 20.8054 114.582 24.6159 119.404 24.6159C124.227 24.6159 128.135 20.8054 128.135 16.104C128.135 11.4028 124.227 7.59221 119.404 7.59221C114.582 7.59221 110.673 11.4028 110.673 16.104ZM119.404 20.4574C116.938 20.4574 114.941 18.5084 114.941 16.104C114.941 13.6996 116.938 11.7507 119.404 11.7507C121.871 11.7507 123.868 13.6996 123.868 16.104C123.868 18.5084 121.871 20.4574 119.404 20.4574ZM119.404 34.2498C114.582 34.2498 110.673 30.4393 110.673 25.7398H114.941C114.941 28.1423 116.938 30.0913 119.404 30.0913C121.871 30.0913 123.868 28.1423 123.868 25.7398H128.135C128.135 30.4393 124.227 34.2498 119.404 34.2498ZM68.1957 7.59221C70.0268 7.59221 71.514 8.18419 72.6612 9.36635C73.8513 10.5704 74.4473 12.2024 74.4473 14.2662V24.1642H70.18V14.7816C70.18 13.7288 69.8885 12.9128 69.3037 12.3317C68.7189 11.7507 67.921 11.4611 66.9066 11.4611C65.7818 11.4611 64.8943 11.7999 64.2441 12.4775C63.594 13.1551 63.2689 14.1478 63.2689 15.4593V24.1642H59.0014V1.59586H63.2689V9.84904C64.2833 8.34449 65.9256 7.59221 68.1957 7.59221ZM90.6518 9.94558V8.04394H94.9173V24.1642H90.6518V22.2626C89.372 23.8308 87.5764 24.6159 85.2615 24.6159C82.9466 24.6159 81.1605 23.7999 79.5722 22.166C78.0066 20.5102 77.2238 18.4902 77.2238 16.104C77.2238 13.7179 78.0066 11.7306 79.5722 10.0749C81.1605 8.41917 83.0549 7.59221 85.2615 7.59221C87.5764 7.59221 89.372 8.37727 90.6518 9.94558ZM82.7803 19.3919C83.6397 20.2316 84.7309 20.6505 86.0537 20.6505C87.3766 20.6505 88.4695 20.2316 89.329 19.3919C90.2108 18.5339 90.6518 17.4374 90.6518 16.104C90.6518 14.7707 90.2108 13.6851 89.329 12.8472C88.4695 11.9875 87.3766 11.5576 86.0537 11.5576C84.7309 11.5576 83.6397 11.9875 82.7803 12.8472C81.9208 13.6851 81.4911 14.7707 81.4911 16.104C81.4911 17.4374 81.9208 18.5339 82.7803 19.3919ZM108.244 8.04394V12.0421H104.508V18.747C104.508 19.3063 104.652 19.716 104.937 19.9729C105.225 20.2316 105.644 20.3755 106.195 20.4083C106.746 20.4411 107.43 20.4355 108.244 20.3918V24.1642C105.358 24.4866 103.301 24.2242 102.077 23.3737C100.853 22.5249 100.242 20.9839 100.242 18.747V12.0421H97.3648V8.04394H100.242V4.78711L104.508 3.53028V8.04394H108.244ZM142.374 16.7489V8.04394H146.641V24.1642H142.374V22.3591C141.359 23.8636 139.717 24.6159 137.447 24.6159C135.639 24.6159 134.141 24.0258 132.951 22.8436C131.78 21.6396 131.195 20.0057 131.195 17.9419V8.04394H135.463V17.4264C135.463 18.4793 135.754 19.2953 136.339 19.8764C136.924 20.4574 137.721 20.747 138.736 20.747C139.861 20.747 140.749 20.4083 141.398 19.7306C142.049 19.0548 142.374 18.0604 142.374 16.7489ZM154.809 8.04394V10.8163C155.184 9.80715 155.823 9.03847 156.727 8.51206C157.631 7.98383 158.668 7.72153 159.836 7.72153V12.3645C158.536 12.1915 157.368 12.4501 156.331 13.1386C155.316 13.8053 154.809 14.9109 154.809 16.4592V24.1642H150.543V8.04394H154.809ZM173.231 16.7489V8.04394H177.496V24.1642H173.231V22.3591C172.216 23.8636 170.574 24.6159 168.301 24.6159C166.495 24.6159 164.994 24.0258 163.804 22.8436C162.636 21.6396 162.052 20.0057 162.052 17.9419V8.04394H166.317V17.4264C166.317 18.4793 166.611 19.2953 167.195 19.8764C167.779 20.4574 168.578 20.747 169.591 20.747C170.715 20.747 171.603 20.4083 172.255 19.7306C172.906 19.0548 173.231 18.0604 173.231 16.7489Z" fill="white"/>
<path fill-rule="evenodd" clip-rule="evenodd" d="M17.5403 32.4972C27.2259 32.4972 35.0807 25.2222 35.0807 16.2478C35.0807 7.27323 27.2259 0 17.5403 0C7.85466 0 0 7.27505 0 16.2478C0 26.7942 8.42078 34.0073 17.5403 38V32.4972ZM8.86919 18.8761C10.4386 18.8761 11.7129 17.6339 11.7129 16.1038C11.7129 14.5738 10.4386 13.3333 8.86919 13.3333C7.29975 13.3333 6.02552 14.5738 6.02552 16.1038C6.02552 17.6339 7.29975 18.8761 8.86919 18.8761ZM17.5403 18.8761C19.1098 18.8761 20.384 17.6339 20.384 16.1038C20.384 14.5738 19.1098 13.3333 17.5403 13.3333C15.9709 13.3333 14.6967 14.5738 14.6967 16.1038C14.6967 17.6339 15.9691 18.8761 17.5403 18.8761ZM26.2115 18.8761C27.7809 18.8761 29.0532 17.6339 29.0532 16.1038C29.0532 14.5738 27.7809 13.3333 26.2115 13.3333C24.6421 13.3333 23.3678 14.5738 23.3678 16.1038C23.3678 17.6339 24.6401 18.8761 26.2115 18.8761Z" fill="#7540EF"/>
</g>
<defs>
<clipPath id="clip0_2003_16">
<rect width="178" height="38" fill="white"/>
</clipPath>
</defs>
</svg>
