<svg width="100" height="100" viewBox="0 0 100 100" fill="none" xmlns="http://www.w3.org/2000/svg">
<rect width="100" height="100" rx="50" fill="#BA85FF"/>
<rect width="100" height="100" rx="50" fill="url(#paint0_radial_32_211)"/>
<path d="M68 68L56 56M32 46C32 47.8385 32.3621 49.659 33.0657 51.3576C33.7693 53.0561 34.8005 54.5995 36.1005 55.8995C37.4005 57.1995 38.9439 58.2307 40.6424 58.9343C42.341 59.6379 44.1615 60 46 60C47.8385 60 49.659 59.6379 51.3576 58.9343C53.0561 58.2307 54.5995 57.1995 55.8995 55.8995C57.1995 54.5995 58.2307 53.0561 58.9343 51.3576C59.6379 49.659 60 47.8385 60 46C60 44.1615 59.6379 42.341 58.9343 40.6424C58.2307 38.9439 57.1995 37.4005 55.8995 36.1005C54.5995 34.8005 53.0561 33.7693 51.3576 33.0657C49.659 32.3621 47.8385 32 46 32C44.1615 32 42.341 32.3621 40.6424 33.0657C38.9439 33.7693 37.4005 34.8005 36.1005 36.1005C34.8005 37.4005 33.7693 38.9439 33.0657 40.6424C32.3621 42.341 32 44.1615 32 46Z" stroke="white" stroke-width="4" stroke-linecap="round" stroke-linejoin="round"/>
<defs>
<radialGradient id="paint0_radial_32_211" cx="0" cy="0" r="1" gradientUnits="userSpaceOnUse" gradientTransform="translate(8.5 -6.49999) rotate(82.2448) scale(129.686)">
<stop stop-color="white" stop-opacity="0.67"/>
<stop offset="1" stop-color="#0BF0FF" stop-opacity="0"/>
</radialGradient>
</defs>
</svg>
