<svg width="137" height="30" viewBox="0 0 137 30" fill="none" xmlns="http://www.w3.org/2000/svg">
<path d="M37.9277 19.4336C36.0108 19.4336 34.4074 18.7894 33.1175 17.4995C31.8448 16.2096 31.2092 14.6148 31.2092 12.7137C31.2092 10.8127 31.8448 9.2179 33.1175 7.92799C34.4074 6.63809 36.0108 5.99385 37.9277 5.99385C39.1672 5.99385 40.2946 6.29152 41.3142 6.88543C42.3323 7.47933 43.1045 8.27599 43.6294 9.27686L40.8037 10.932C40.5506 10.4057 40.1638 9.99012 39.6461 9.68526C39.1284 9.37896 38.5474 9.22653 37.9032 9.22653C36.9182 9.22653 36.1043 9.55296 35.4586 10.2073C34.8143 10.8601 34.4922 11.6956 34.4922 12.7137C34.4922 13.7318 34.8143 14.5299 35.4586 15.2087C36.1043 15.8529 36.9182 16.175 37.9032 16.175C38.5647 16.175 39.1543 16.0269 39.672 15.7307C40.1897 15.433 40.5751 15.0218 40.8296 14.4954L43.6812 16.1247C43.1204 17.1428 42.328 17.9481 41.2998 18.542C40.2745 19.1374 39.15 19.4336 37.9277 19.4336ZM85.181 12.7137C85.181 16.4253 88.1894 19.4336 91.9009 19.4336C95.6125 19.4336 98.6208 16.4253 98.6208 12.7137C98.6208 9.00219 95.6125 5.99385 91.9009 5.99385C88.1894 5.99385 85.181 9.00219 85.181 12.7137ZM91.9009 16.1506C90.0027 16.1506 88.4655 14.6119 88.4655 12.7137C88.4655 10.8155 90.0027 9.27686 91.9009 9.27686C93.7991 9.27686 95.3363 10.8155 95.3363 12.7137C95.3363 14.6119 93.7991 16.1506 91.9009 16.1506ZM91.9009 27.0393C88.1894 27.0393 85.181 24.031 85.181 20.3209H88.4655C88.4655 22.2176 90.0027 23.7563 91.9009 23.7563C93.7991 23.7563 95.3363 22.2176 95.3363 20.3209H98.6208C98.6208 24.031 95.6125 27.0393 91.9009 27.0393ZM52.4876 5.99385C53.8969 5.99385 55.0416 6.46121 55.9245 7.39449C56.8405 8.34502 57.2992 9.63349 57.2992 11.2628V19.077H54.0148V11.6697C54.0148 10.8385 53.7905 10.1943 53.3404 9.73559C52.8903 9.27686 52.2762 9.04821 51.4954 9.04821C50.6297 9.04821 49.9466 9.31568 49.4462 9.85063C48.9458 10.3856 48.6956 11.1693 48.6956 12.2047V19.077H45.4111V1.25989H48.6956V7.77556C49.4764 6.58776 50.7404 5.99385 52.4876 5.99385ZM69.7712 7.85178V6.35048H73.0542V19.077H69.7712V17.5757C68.7862 18.8138 67.4042 19.4336 65.6225 19.4336C63.8408 19.4336 62.4661 18.7894 61.2437 17.4995C60.0387 16.1923 59.4362 14.5975 59.4362 12.7137C59.4362 10.8299 60.0387 9.26104 61.2437 7.95388C62.4661 6.64672 63.9242 5.99385 65.6225 5.99385C67.4042 5.99385 68.7862 6.61364 69.7712 7.85178ZM63.7128 15.3094C64.3743 15.9723 65.2141 16.303 66.2322 16.303C67.2504 16.303 68.0916 15.9723 68.7531 15.3094C69.4318 14.632 69.7712 13.7664 69.7712 12.7137C69.7712 11.6611 69.4318 10.804 68.7531 10.1425C68.0916 9.4638 67.2504 9.12443 66.2322 9.12443C65.2141 9.12443 64.3743 9.4638 63.7128 10.1425C63.0513 10.804 62.7206 11.6611 62.7206 12.7137C62.7206 13.7664 63.0513 14.632 63.7128 15.3094ZM83.3116 6.35048V9.50694H80.4356V14.8003C80.4356 15.2418 80.5463 15.5653 80.7663 15.7681C80.9878 15.9723 81.3099 16.0859 81.7341 16.1118C82.1583 16.1377 82.6846 16.1333 83.3116 16.0988V19.077C81.0899 19.3315 79.5066 19.1244 78.5647 18.4529C77.6228 17.7828 77.1526 16.5662 77.1526 14.8003V9.50694H74.938V6.35048H77.1526V3.7793L80.4356 2.78707V6.35048H83.3116ZM109.58 13.2228V6.35048H112.864V19.077H109.58V17.6519C108.799 18.8397 107.535 19.4336 105.788 19.4336C104.396 19.4336 103.243 18.9677 102.327 18.0344C101.426 17.0839 100.976 15.794 100.976 14.1647V6.35048H104.261V13.7577C104.261 14.5889 104.485 15.2331 104.935 15.6919C105.385 16.1506 105.999 16.3792 106.78 16.3792C107.646 16.3792 108.329 16.1118 108.829 15.5768C109.33 15.0433 109.58 14.2582 109.58 13.2228ZM119.151 6.35048V8.53915C119.439 7.74249 119.931 7.13564 120.627 6.72005C121.323 6.30303 122.121 6.09595 123.02 6.09595V9.76147C122.019 9.62486 121.12 9.82906 120.322 10.3726C119.541 10.8989 119.151 11.7718 119.151 12.9941V19.077H115.867V6.35048H119.151ZM133.329 13.2228V6.35048H136.612V19.077H133.329V17.6519C132.548 18.8397 131.284 19.4336 129.535 19.4336C128.145 19.4336 126.99 18.9677 126.074 18.0344C125.175 17.0839 124.725 15.794 124.725 14.1647V6.35048H128.008V13.7577C128.008 14.5889 128.234 15.2331 128.684 15.6919C129.133 16.1506 129.748 16.3792 130.528 16.3792C131.393 16.3792 132.076 16.1118 132.578 15.5768C133.079 15.0433 133.329 14.2582 133.329 13.2228Z" fill="#090A18"/>
<path fill-rule="evenodd" clip-rule="evenodd" d="M13.5001 25.6557C20.9548 25.6557 27.0003 19.9123 27.0003 12.8272C27.0003 5.74202 20.9548 0 13.5001 0C6.04544 0 0 5.74346 0 12.8272C0 21.1533 6.48116 26.8479 13.5001 30V25.6557ZM6.82629 14.9022C8.03423 14.9022 9.01496 13.9215 9.01496 12.7135C9.01496 11.5056 8.03423 10.5263 6.82629 10.5263C5.61835 10.5263 4.63762 11.5056 4.63762 12.7135C4.63762 13.9215 5.61835 14.9022 6.82629 14.9022ZM13.5001 14.9022C14.7081 14.9022 15.6888 13.9215 15.6888 12.7135C15.6888 11.5056 14.7081 10.5263 13.5001 10.5263C12.2922 10.5263 11.3115 11.5056 11.3115 12.7135C11.3115 13.9215 12.2908 14.9022 13.5001 14.9022ZM20.174 14.9022C21.3819 14.9022 22.3612 13.9215 22.3612 12.7135C22.3612 11.5056 21.3819 10.5263 20.174 10.5263C18.9661 10.5263 17.9853 11.5056 17.9853 12.7135C17.9853 13.9215 18.9646 14.9022 20.174 14.9022Z" fill="#7540EF"/>
</svg>
