<svg width="85" height="35" viewBox="0 0 85 35" fill="none" xmlns="http://www.w3.org/2000/svg">
<rect x="0.5" y="0.5" width="84" height="34" rx="3.32407" fill="white"/>
<rect x="0.5" y="0.5" width="84" height="34" rx="3.32407" stroke="#D7D7D7"/>
<g clip-path="url(#clip0_45_927)">
<path d="M32.0513 30.4432V28.7177C32.0513 28.0576 31.6429 27.6254 30.942 27.6254C30.5915 27.6254 30.2104 27.7393 29.9484 28.1146C29.7442 27.7996 29.4516 27.6254 29.0126 27.6254C28.72 27.6254 28.4274 27.7125 28.196 28.0275V27.6824H27.5835V30.4432H28.196V28.9187C28.196 28.4295 28.458 28.1983 28.8663 28.1983C29.2746 28.1983 29.4788 28.4563 29.4788 28.9187V30.4432H30.0913V28.9187C30.0913 28.4295 30.3839 28.1983 30.7616 28.1983C31.17 28.1983 31.3741 28.4563 31.3741 28.9187V30.4432H32.0513ZM41.1365 27.6824H40.1429V26.8481H39.5305V27.6824H38.9758V28.2285H39.5305V29.495C39.5305 30.1282 39.7925 30.5001 40.4934 30.5001C40.7554 30.5001 41.0481 30.413 41.2522 30.2991L41.0753 29.7798C40.8983 29.8937 40.6942 29.9239 40.5479 29.9239C40.2552 29.9239 40.1395 29.7496 40.1395 29.4648V28.2285H41.1331V27.6824H41.1365ZM46.3359 27.622C45.9854 27.622 45.7506 27.7963 45.6043 28.0241V27.679H44.9918V30.4398H45.6043V28.8852C45.6043 28.4262 45.8085 28.1648 46.1896 28.1648C46.3053 28.1648 46.4516 28.195 46.5707 28.2218L46.7476 27.6455C46.6251 27.622 46.4516 27.622 46.3359 27.622ZM38.479 27.9102C38.1864 27.7092 37.7781 27.622 37.3391 27.622C36.6381 27.622 36.172 27.9672 36.172 28.5133C36.172 28.9723 36.5224 29.2336 37.1349 29.3174L37.4276 29.3476C37.7474 29.4045 37.9244 29.4916 37.9244 29.6357C37.9244 29.8367 37.6896 29.9808 37.2813 29.9808C36.8729 29.9808 36.5497 29.8367 36.3455 29.6927L36.0529 30.1517C36.3727 30.3829 36.8117 30.4968 37.2506 30.4968C38.0673 30.4968 38.5369 30.1215 38.5369 29.6056C38.5369 29.1164 38.1558 28.8584 37.5739 28.7713L37.2813 28.7411C37.0192 28.711 36.8151 28.654 36.8151 28.4831C36.8151 28.2821 37.0192 28.1682 37.3425 28.1682C37.693 28.1682 38.0435 28.3123 38.2204 28.3994L38.479 27.9102ZM54.7747 27.622C54.4242 27.622 54.1894 27.7963 54.0431 28.0241V27.679H53.4306V30.4398H54.0431V28.8852C54.0431 28.4262 54.2472 28.1648 54.6283 28.1648C54.744 28.1648 54.8903 28.195 55.0094 28.2218L55.1864 27.6522C55.0673 27.622 54.8937 27.622 54.7747 27.622ZM46.9484 29.0628C46.9484 29.897 47.5337 30.5001 48.4388 30.5001C48.8471 30.5001 49.1397 30.413 49.4324 30.1852L49.1397 29.696C48.905 29.8702 48.6736 29.954 48.4082 29.954C47.9114 29.954 47.5609 29.6089 47.5609 29.0628C47.5609 28.5434 47.9114 28.1983 48.4082 28.1715C48.6702 28.1715 48.905 28.2586 49.1397 28.4295L49.4324 27.9403C49.1397 27.7092 48.8471 27.6254 48.4388 27.6254C47.5337 27.622 46.9484 28.2285 46.9484 29.0628ZM52.6139 29.0628V27.6824H52.0014V28.0275C51.7973 27.7695 51.5046 27.6254 51.1235 27.6254C50.3341 27.6254 49.7216 28.2285 49.7216 29.0628C49.7216 29.897 50.3341 30.5001 51.1235 30.5001C51.5319 30.5001 51.8245 30.3561 52.0014 30.0981V30.4432H52.6139V29.0628ZM50.3647 29.0628C50.3647 28.5736 50.6846 28.1715 51.212 28.1715C51.7088 28.1715 52.0593 28.5468 52.0593 29.0628C52.0593 29.5519 51.7088 29.954 51.212 29.954C50.688 29.9239 50.3647 29.5486 50.3647 29.0628ZM43.0353 27.622C42.2186 27.622 41.6333 28.1983 41.6333 29.0594C41.6333 29.9239 42.2186 30.4968 43.0659 30.4968C43.4742 30.4968 43.8825 30.3829 44.2058 30.1215L43.9132 29.6893C43.6784 29.8635 43.3857 29.9775 43.0965 29.9775C42.7154 29.9775 42.3377 29.8032 42.2492 29.3174H44.3215C44.3215 29.2303 44.3215 29.1733 44.3215 29.0862C44.3487 28.1983 43.8213 27.622 43.0353 27.622ZM43.0353 28.1414C43.4164 28.1414 43.6784 28.3726 43.7362 28.8014H42.2765C42.3343 28.4295 42.5963 28.1414 43.0353 28.1414ZM58.2522 29.0628V26.5901H57.6397V28.0275C57.4356 27.7695 57.1429 27.6254 56.7618 27.6254C55.9724 27.6254 55.3599 28.2285 55.3599 29.0628C55.3599 29.897 55.9724 30.5001 56.7618 30.5001C57.1702 30.5001 57.4628 30.3561 57.6397 30.0981V30.4432H58.2522V29.0628ZM56.003 29.0628C56.003 28.5736 56.3229 28.1715 56.8503 28.1715C57.3471 28.1715 57.6976 28.5468 57.6976 29.0628C57.6976 29.5519 57.3471 29.954 56.8503 29.954C56.3229 29.9239 56.003 29.5486 56.003 29.0628ZM35.4982 29.0628V27.6824H34.8857V28.0275C34.6816 27.7695 34.3889 27.6254 34.0078 27.6254C33.2184 27.6254 32.6059 28.2285 32.6059 29.0628C32.6059 29.897 33.2184 30.5001 34.0078 30.5001C34.4162 30.5001 34.7088 30.3561 34.8857 30.0981V30.4432H35.4982V29.0628ZM33.2218 29.0628C33.2218 28.5736 33.5417 28.1715 34.0691 28.1715C34.5659 28.1715 34.9164 28.5468 34.9164 29.0628C34.9164 29.5519 34.5659 29.954 34.0691 29.954C33.5417 29.9239 33.2218 29.5486 33.2218 29.0628Z" fill="#D7D7D7"/>
<path d="M47.4758 6.71484H38.2748V22.9916H47.4758V6.71484Z" fill="#D7D7D7"/>
<path d="M38.8873 14.8531C38.8873 11.5461 40.4662 8.61108 42.8889 6.71469C41.1059 5.33428 38.8567 4.5 36.4033 4.5C30.5915 4.5 25.8889 9.13041 25.8889 14.8531C25.8889 20.5758 30.5915 25.2062 36.4033 25.2062C38.8567 25.2062 41.1059 24.3719 42.8889 22.9915C40.4628 21.1219 38.8873 18.1601 38.8873 14.8531Z" fill="#D7D7D7"/>
<path d="M59.8889 14.8531C59.8889 20.5758 55.1864 25.2062 49.3745 25.2062C46.9211 25.2062 44.6719 24.3719 42.8889 22.9915C45.3423 21.0918 46.8905 18.1601 46.8905 14.8531C46.8905 11.5461 45.3117 8.61108 42.8889 6.71469C44.6685 5.33428 46.9177 4.5 49.3711 4.5C55.1864 4.5 59.8889 9.16057 59.8889 14.8531Z" fill="#D7D7D7"/>
</g>
<defs>
<clipPath id="clip0_45_927">
<rect width="34" height="26" fill="white" transform="translate(25.5 4.5)"/>
</clipPath>
</defs>
</svg>
