<svg width="84" height="35" viewBox="0 0 84 35" fill="none" xmlns="http://www.w3.org/2000/svg">
<rect x="0.5" y="0.5" width="83" height="34" rx="3.32407" fill="white"/>
<rect x="0.5" y="0.5" width="83" height="34" rx="3.32407" stroke="#D7D7D7"/>
<g clip-path="url(#clip0_45_904)">
<path d="M36.2702 13.9541H33.7883C33.6184 13.9541 33.474 14.0777 33.4475 14.2457L32.4437 20.6228C32.4237 20.7486 32.521 20.8621 32.6484 20.8621H33.8333C34.0031 20.8621 34.1475 20.7385 34.174 20.5701L34.4448 18.8501C34.4709 18.6817 34.6157 18.5581 34.7852 18.5581H35.5708C37.2057 18.5581 38.1493 17.7654 38.3957 16.1945C38.5067 15.5072 38.4004 14.9672 38.0792 14.589C37.7265 14.1737 37.1008 13.9541 36.2702 13.9541ZM36.5565 16.2832C36.4208 17.1756 35.7403 17.1756 35.0824 17.1756H34.7079L34.9706 15.509C34.9862 15.4083 35.0733 15.3341 35.1749 15.3341H35.3466C35.7948 15.3341 36.2175 15.3341 36.436 15.5901C36.5663 15.7428 36.6062 15.9697 36.5565 16.2832Z" fill="#D7D7D7"/>
<path d="M43.689 16.2543H42.5004C42.3992 16.2543 42.3117 16.3285 42.2961 16.4292L42.2435 16.7623L42.1604 16.6416C41.9031 16.2674 41.3294 16.1423 40.7567 16.1423C39.4434 16.1423 38.3216 17.1391 38.1032 18.5372C37.9896 19.2347 38.1511 19.9016 38.5459 20.3667C38.9081 20.7943 39.4263 20.9725 40.0429 20.9725C41.1011 20.9725 41.6879 20.2907 41.6879 20.2907L41.6349 20.6216C41.615 20.7482 41.7122 20.8616 41.8389 20.8616H42.9094C43.0796 20.8616 43.2234 20.738 43.2502 20.5696L43.8925 16.4936C43.9129 16.3682 43.816 16.2543 43.689 16.2543ZM42.0323 18.5722C41.9176 19.2525 41.3787 19.7092 40.6914 19.7092C40.3463 19.7092 40.0704 19.5983 39.8934 19.3882C39.7177 19.1794 39.6509 18.8823 39.7068 18.5514C39.8139 17.8769 40.3619 17.4052 41.0387 17.4052C41.3762 17.4052 41.6505 17.5176 41.8313 17.7296C42.0123 17.9438 42.0842 18.2427 42.0323 18.5722Z" fill="#D7D7D7"/>
<path d="M50.0187 16.2544H48.8244C48.7104 16.2544 48.6034 16.3111 48.5388 16.406L46.8916 18.8373L46.1933 16.5009C46.1494 16.3548 46.0148 16.2544 45.8624 16.2544H44.6888C44.5461 16.2544 44.4471 16.394 44.4924 16.5286L45.8079 20.3969L44.5712 22.1464C44.4739 22.2842 44.5719 22.4737 44.7399 22.4737H45.9328C46.046 22.4737 46.152 22.4184 46.2162 22.3253L50.1886 16.5798C50.2836 16.4424 50.186 16.2544 50.0187 16.2544Z" fill="#D7D7D7"/>
<path d="M53.9729 13.9541H51.4907C51.3212 13.9541 51.1768 14.0777 51.1503 14.2457L50.1465 20.6228C50.1265 20.7486 50.2238 20.8621 50.3504 20.8621H51.6242C51.7425 20.8621 51.8438 20.7756 51.8623 20.6577L52.1472 18.8501C52.1733 18.6817 52.3181 18.5581 52.4876 18.5581H53.2729C54.9082 18.5581 55.8513 17.7654 56.0981 16.1945C56.2095 15.5072 56.1025 14.9672 55.7813 14.589C55.4289 14.1737 54.8036 13.9541 53.9729 13.9541ZM54.2593 16.2832C54.1239 17.1756 53.4435 17.1756 52.7852 17.1756H52.411L52.6741 15.509C52.6897 15.4083 52.7761 15.3341 52.8781 15.3341H53.0497C53.4975 15.3341 53.9207 15.3341 54.1392 15.5901C54.2694 15.7428 54.309 15.9697 54.2593 16.2832Z" fill="#D7D7D7"/>
<path d="M61.3913 16.2543H60.2036C60.1016 16.2543 60.0148 16.3285 59.9996 16.4292L59.947 16.7623L59.8635 16.6416C59.6062 16.2674 59.0328 16.1423 58.4602 16.1423C57.1468 16.1423 56.0255 17.1391 55.807 18.5372C55.6938 19.2347 55.8545 19.9016 56.2494 20.3667C56.6123 20.7943 57.1298 20.9725 57.7463 20.9725C58.8046 20.9725 59.3914 20.2907 59.3914 20.2907L59.3384 20.6216C59.3184 20.7482 59.4157 20.8616 59.5431 20.8616H60.6133C60.7828 20.8616 60.9272 20.738 60.9537 20.5696L61.5964 16.4936C61.616 16.3682 61.5187 16.2543 61.3913 16.2543ZM59.7347 18.5722C59.6207 19.2525 59.0811 19.7092 58.3938 19.7092C58.0494 19.7092 57.7728 19.5983 57.5957 19.3882C57.4201 19.1794 57.354 18.8823 57.4092 18.5514C57.517 17.8769 58.0642 17.4052 58.7411 17.4052C59.0786 17.4052 59.3529 17.5176 59.5336 17.7296C59.7155 17.9438 59.7873 18.2427 59.7347 18.5722Z" fill="#D7D7D7"/>
<path d="M62.7925 14.1289L61.7738 20.6227C61.7539 20.7485 61.8511 20.862 61.9778 20.862H63.0019C63.1721 20.862 63.3165 20.7383 63.3427 20.57L64.3472 14.1932C64.3671 14.0674 64.2699 13.9536 64.1432 13.9536H62.9965C62.8952 13.954 62.8081 14.0282 62.7925 14.1289Z" fill="#D7D7D7"/>
<path d="M22.1369 22.1014L22.3267 20.8934L21.9039 20.8836H19.885L21.288 11.9698C21.2924 11.9429 21.3065 11.9178 21.3272 11.9C21.3479 11.8821 21.3744 11.8723 21.402 11.8723H24.806C25.9361 11.8723 26.716 12.108 27.1231 12.573C27.314 12.7912 27.4356 13.0192 27.4944 13.2701C27.5561 13.5334 27.5572 13.848 27.4969 14.2316L27.4926 14.2596V14.5054L27.6835 14.6138C27.8442 14.6992 27.972 14.797 28.07 14.909C28.2333 15.0956 28.3389 15.3327 28.3835 15.6138C28.4296 15.9029 28.4144 16.2469 28.3389 16.6363C28.2518 17.0843 28.111 17.4745 27.9208 17.7938C27.7459 18.088 27.5231 18.332 27.2585 18.521C27.0059 18.7007 26.7058 18.837 26.3665 18.9243C26.0377 19.0101 25.6628 19.0534 25.2517 19.0534H24.9867C24.7973 19.0534 24.6133 19.1218 24.4689 19.2443C24.3241 19.3694 24.2283 19.5403 24.1989 19.7272L24.1789 19.836L23.8436 21.965L23.8283 22.0432C23.8244 22.068 23.8175 22.0803 23.8073 22.0887C23.7982 22.0963 23.7852 22.1014 23.7725 22.1014H22.1369Z" fill="#D7D7D7"/>
<path d="M27.8642 14.2878C27.854 14.3529 27.8424 14.4195 27.8293 14.4878C27.3804 16.7973 25.8446 17.5951 23.8831 17.5951H22.8844C22.6445 17.5951 22.4424 17.7697 22.405 18.0068L21.8937 21.2562L21.7489 22.1773C21.7246 22.3329 21.8443 22.4733 22.0011 22.4733H23.7724C23.9822 22.4733 24.1604 22.3206 24.1934 22.1133L24.2108 22.0231L24.5443 19.9024L24.5657 19.786C24.5984 19.578 24.7769 19.4253 24.9867 19.4253H25.2516C26.9678 19.4253 28.3113 18.7271 28.7039 16.7068C28.8679 15.8628 28.783 15.158 28.349 14.6624C28.2176 14.5129 28.0547 14.3889 27.8642 14.2878Z" fill="#D7D7D7"/>
<path d="M27.3946 14.1002C27.326 14.0802 27.2552 14.062 27.1826 14.0456C27.1097 14.0296 27.0349 14.0154 26.958 14.0031C26.6887 13.9594 26.3937 13.9387 26.0776 13.9387H23.4095C23.3438 13.9387 23.2814 13.9536 23.2255 13.9805C23.1025 14.0398 23.0111 14.1565 22.9889 14.2994L22.4213 17.9016L22.405 18.0067C22.4424 17.7696 22.6445 17.5951 22.8844 17.5951H23.8831C25.8446 17.5951 27.3804 16.7969 27.8293 14.4878C27.8428 14.4194 27.854 14.3529 27.8642 14.2878C27.7506 14.2274 27.6276 14.1758 27.4951 14.1318C27.4624 14.1209 27.4287 14.1104 27.3946 14.1002Z" fill="#D7D7D7"/>
<path d="M22.989 14.2996C23.0111 14.1567 23.1026 14.04 23.2256 13.9811C23.2818 13.9542 23.3439 13.9393 23.4096 13.9393H26.0776C26.3937 13.9393 26.6888 13.96 26.958 14.0036C27.035 14.016 27.1097 14.0302 27.1827 14.0462C27.2553 14.0625 27.326 14.0807 27.3946 14.1007C27.4287 14.1109 27.4625 14.1215 27.4955 14.132C27.628 14.176 27.751 14.228 27.8646 14.288C27.9981 13.4345 27.8635 12.8535 27.403 12.3273C26.8953 11.748 25.9789 11.5 24.8064 11.5H21.4024C21.1628 11.5 20.9585 11.6745 20.9215 11.912L19.5036 20.9175C19.4757 21.0956 19.6129 21.2564 19.7921 21.2564H21.8937L22.4214 17.9018L22.989 14.2996Z" fill="#D7D7D7"/>
</g>
<defs>
<clipPath id="clip0_45_904">
<rect width="45" height="12" fill="white" transform="translate(19.5 11.5)"/>
</clipPath>
</defs>
</svg>
