<svg width="48" height="48" viewBox="0 0 48 48" fill="none" xmlns="http://www.w3.org/2000/svg">
<rect width="48" height="48" rx="8" fill="#D7D7D7"/>
<path d="M22.7 32.9333V17.6427L16.8783 23.288C16.4493 23.704 15.7535 23.704 15.3217 23.288C14.8927 22.872 14.8927 22.1973 15.3217 21.7787L23.0218 14.312C23.4508 13.896 24.1465 13.896 24.5783 14.312L32.2783 21.7787C32.4928 21.9867 32.6 22.2587 32.6 22.5333C32.6 22.808 32.4928 23.08 32.2783 23.288C31.8493 23.704 31.1535 23.704 30.7218 23.288L24.9 17.6427V32.9333C24.9 33.5227 24.4078 34 23.8 34C23.1923 34 22.7 33.5227 22.7 32.9333Z" fill="white"/>
</svg>
