<svg width="18" height="20" viewBox="0 0 18 20" fill="none" xmlns="http://www.w3.org/2000/svg">
<path d="M7.7 18.9333V3.64267L1.87825 9.288C1.44925 9.704 0.7535 9.704 0.32175 9.288C-0.10725 8.872 -0.10725 8.19733 0.32175 7.77867L8.02175 0.312C8.45075 -0.104 9.1465 -0.104 9.57825 0.312L17.2783 7.77867C17.4928 7.98667 17.6 8.25867 17.6 8.53333C17.6 8.808 17.4928 9.08 17.2783 9.288C16.8493 9.704 16.1535 9.704 15.7218 9.288L9.9 3.64267V18.9333C9.9 19.5227 9.40775 20 8.8 20C8.19225 20 7.7 19.5227 7.7 18.9333Z" fill="white"/>
</svg>
