<svg width="85" height="35" viewBox="0 0 85 35" fill="none" xmlns="http://www.w3.org/2000/svg">
<rect x="0.833336" y="0.5" width="83" height="34" rx="3.32407" fill="white"/>
<rect x="0.833336" y="0.5" width="83" height="34" rx="3.32407" stroke="#D7D7D7"/>
<g clip-path="url(#clip0_45_916)">
<path d="M39.4629 24.2982H35.8176L38.0977 10.7458H41.7428L39.4629 24.2982Z" fill="#D7D7D7"/>
<path d="M52.6775 11.077C51.9585 10.8028 50.8181 10.5 49.408 10.5C45.8081 10.5 43.2731 12.3453 43.2576 14.9836C43.2277 16.9301 45.0726 18.0113 46.4524 18.6603C47.8627 19.3235 48.3421 19.7564 48.3421 20.3475C48.3278 21.2554 47.2025 21.6739 46.153 21.6739C44.6976 21.6739 43.9178 21.4582 42.7327 20.9531L42.2527 20.7365L41.7426 23.7787C42.5976 24.1532 44.1727 24.4854 45.8081 24.5C49.633 24.5 52.1232 22.6832 52.1527 19.8717C52.1672 18.329 51.1931 17.1468 49.0928 16.1809C47.8179 15.5608 47.037 15.1427 47.037 14.5082C47.052 13.9314 47.6975 13.3406 49.1367 13.3406C50.3218 13.3117 51.1925 13.5855 51.8521 13.8595L52.1818 14.0034L52.6775 11.077Z" fill="#D7D7D7"/>
<path d="M57.5225 19.4971C57.8227 18.7185 58.9779 15.7053 58.9779 15.7053C58.9627 15.7342 59.2775 14.9123 59.4575 14.4078L59.7122 15.5755C59.7122 15.5755 60.4025 18.8195 60.5524 19.4971C59.9827 19.4971 58.2425 19.4971 57.5225 19.4971ZM62.0222 10.7458H59.2025C58.333 10.7458 57.6724 10.9907 57.2972 11.8703L51.8826 24.298H55.7075C55.7075 24.298 56.3372 22.6253 56.4726 22.2651C56.8922 22.2651 60.613 22.2651 61.1528 22.2651C61.2575 22.7409 61.5878 24.298 61.5878 24.298H64.963L62.0222 10.7458Z" fill="#D7D7D7"/>
<path d="M32.7729 10.7458L29.203 19.9873L28.8128 18.113C28.1528 15.9503 26.0829 13.6007 23.773 12.4323L27.0429 24.2838H30.8977L36.6275 10.7458H32.7729Z" fill="#D7D7D7"/>
<path d="M25.8879 10.7458H20.023L19.963 11.0197C24.538 12.1443 27.568 14.8552 28.8128 18.1136L27.5379 11.8851C27.328 11.0195 26.6829 10.7744 25.8879 10.7458Z" fill="#D7D7D7"/>
</g>
<defs>
<clipPath id="clip0_45_916">
<rect width="45" height="14" fill="white" transform="translate(19.8333 10.5)"/>
</clipPath>
</defs>
</svg>
